<?xml version="1.0" standalone="no"?>
<!DOCTYPE svg PUBLIC "-//W3C//DTD SVG 20010904//EN"
 "http://www.w3.org/TR/2001/REC-SVG-20010904/DTD/svg10.dtd">
<svg version="1.0" xmlns="http://www.w3.org/2000/svg"
 width="183.000000pt" height="194.000000pt" viewBox="0 0 183.000000 194.000000"
 preserveAspectRatio="xMidYMid meet">

<g transform="translate(0.000000,194.000000) scale(0.100000,-0.100000)"
fill="#000000" stroke="none">
<path d="M765 1926 c-226 -45 -410 -167 -569 -378 -164 -219 -223 -466 -180
-755 46 -316 223 -574 479 -698 216 -106 495 -122 730 -44 278 93 489 333 566
644 27 107 36 321 19 451 -45 361 -244 633 -536 735 -149 51 -375 71 -509 45z
m375 -122 c254 -59 461 -296 531 -609 9 -37 14 -122 14 -225 -1 -197 -20 -293
-90 -436 -131 -270 -348 -414 -625 -414 -173 0 -291 44 -402 148 -119 112
-185 281 -209 537 -13 136 -7 318 16 446 52 301 207 499 433 553 78 19 252 19
332 0z"/>
<path d="M876 1449 c-138 -33 -283 -171 -337 -324 -29 -83 -29 -233 0 -326 43
-136 145 -247 267 -290 154 -54 340 -25 456 71 52 43 114 141 139 219 25 79
30 236 10 321 -19 76 -76 183 -121 224 -106 95 -273 138 -414 105z m231 -64
c97 -29 177 -114 225 -237 25 -66 35 -211 19 -288 -25 -123 -106 -236 -206
-288 -44 -24 -62 -27 -145 -27 -86 0 -100 3 -148 29 -103 57 -150 162 -159
352 -13 255 63 418 217 465 43 13 144 10 197 -6z"/>
</g>
</svg>
